<?xml version="1.0" encoding="UTF-8"?>
<svg xmlns="http://www.w3.org/2000/svg" xmlns:xlink="http://www.w3.org/1999/xlink" width="16pt" height="16pt" viewBox="0 0 16 16" version="1.1">
<g id="surface1">
<path style=" stroke:none;fill-rule:nonzero;fill:rgb(0%,0%,0%);fill-opacity:1;" d="M 10.410156 7.417969 C 11.4375 6.671875 12.101562 5.464844 12.101562 4.101562 C 12.101562 1.839844 10.261719 0 8 0 C 5.738281 0 3.898438 1.839844 3.898438 4.101562 C 3.898438 5.464844 4.5625 6.671875 5.589844 7.417969 C 3.042969 8.394531 1.230469 10.859375 1.230469 13.742188 C 1.230469 14.988281 2.242188 16 3.488281 16 L 12.511719 16 C 13.757812 16 14.769531 14.988281 14.769531 13.742188 C 14.769531 10.859375 12.957031 8.394531 10.410156 7.417969 Z M 5.128906 4.101562 C 5.128906 2.519531 6.417969 1.230469 8 1.230469 C 9.582031 1.230469 10.871094 2.519531 10.871094 4.101562 C 10.871094 5.6875 9.582031 6.972656 8 6.972656 C 6.417969 6.972656 5.128906 5.6875 5.128906 4.101562 Z M 12.511719 14.769531 L 3.488281 14.769531 C 2.921875 14.769531 2.460938 14.308594 2.460938 13.742188 C 2.460938 10.691406 4.945312 8.207031 8 8.207031 C 11.054688 8.207031 13.539062 10.691406 13.539062 13.742188 C 13.539062 14.308594 13.078125 14.769531 12.511719 14.769531 Z M 12.511719 14.769531 "/>
</g>
</svg>
