<?xml version="1.0" encoding="UTF-8"?>
<svg xmlns="http://www.w3.org/2000/svg" xmlns:xlink="http://www.w3.org/1999/xlink" width="13pt" height="13pt" viewBox="0 0 13 13" version="1.1">
<g id="surface1">
<path style=" stroke:none;fill-rule:nonzero;fill:rgb(0%,0%,0%);fill-opacity:1;" d="M 6.675781 0.0390625 C 6.546875 -0.0195312 6.402344 -0.0117188 6.285156 0.0625 C 6.164062 0.136719 6.09375 0.265625 6.09375 0.40625 C 6.09375 2.59375 5.011719 3.421875 3.867188 4.292969 C 2.765625 5.136719 1.625 6.003906 1.625 8.023438 C 1.625 10.769531 3.8125 13 6.5 13 C 9.1875 13 11.375 10.769531 11.375 8.023438 C 11.375 4.453125 8.109375 0.726562 6.675781 0.0390625 Z M 4.875 10.460938 C 4.875 9.8125 5.207031 9.550781 5.664062 9.191406 C 6.097656 8.855469 6.609375 8.453125 6.8125 7.671875 C 7.394531 8.277344 8.125 9.414062 8.125 10.460938 C 8.125 11.414062 7.394531 12.1875 6.5 12.1875 C 5.605469 12.1875 4.875 11.414062 4.875 10.460938 Z M 8.714844 11.503906 C 8.855469 11.1875 8.9375 10.835938 8.9375 10.460938 C 8.9375 8.742188 7.453125 6.921875 6.679688 6.542969 C 6.550781 6.480469 6.402344 6.488281 6.285156 6.5625 C 6.164062 6.636719 6.09375 6.765625 6.09375 6.90625 C 6.09375 7.824219 5.683594 8.144531 5.164062 8.550781 C 4.648438 8.957031 4.0625 9.414062 4.0625 10.460938 C 4.0625 10.835938 4.144531 11.1875 4.285156 11.503906 C 3.175781 10.761719 2.4375 9.480469 2.4375 8.023438 C 2.4375 6.40625 3.328125 5.726562 4.359375 4.941406 C 5.4375 4.117188 6.640625 3.199219 6.867188 1.125 C 8.28125 2.230469 10.5625 5.222656 10.5625 8.023438 C 10.5625 9.480469 9.824219 10.761719 8.714844 11.503906 Z M 8.714844 11.503906 "/>
</g>
</svg>
