<?xml version="1.0" encoding="UTF-8"?>
<svg xmlns="http://www.w3.org/2000/svg" xmlns:xlink="http://www.w3.org/1999/xlink" width="13pt" height="13pt" viewBox="0 0 13 13" version="1.1">
<g id="surface1">
<path style=" stroke:none;fill-rule:nonzero;fill:rgb(0%,0%,0%);fill-opacity:1;" d="M 10.738281 5.152344 C 10.644531 4.980469 10.460938 4.875 10.265625 4.875 L 7.027344 4.875 L 7.582031 0.636719 C 7.617188 0.382812 7.46875 0.140625 7.226562 0.0546875 C 6.984375 -0.03125 6.71875 0.0664062 6.582031 0.28125 L 2.269531 7.300781 C 2.167969 7.464844 2.160156 7.675781 2.257812 7.847656 C 2.351562 8.019531 2.535156 8.125 2.730469 8.125 L 5.917969 8.125 L 5.417969 12.371094 C 5.386719 12.621094 5.539062 12.863281 5.777344 12.945312 C 6.019531 13.027344 6.285156 12.933594 6.417969 12.71875 L 10.726562 5.699219 C 10.832031 5.535156 10.835938 5.324219 10.738281 5.152344 Z M 6.78125 10.058594 L 7.0625 7.648438 C 7.082031 7.492188 7.03125 7.339844 6.929688 7.222656 C 6.828125 7.109375 6.679688 7.042969 6.523438 7.042969 L 3.699219 7.042969 L 6.179688 3.007812 L 5.875 5.347656 C 5.851562 5.5 5.902344 5.65625 6.003906 5.773438 C 6.105469 5.890625 6.253906 5.957031 6.410156 5.957031 L 9.296875 5.957031 Z M 6.78125 10.058594 "/>
</g>
</svg>
