<?xml version="1.0" encoding="UTF-8"?>
<svg xmlns="http://www.w3.org/2000/svg" xmlns:xlink="http://www.w3.org/1999/xlink" width="13pt" height="13pt" viewBox="0 0 13 13" version="1.1">
<g id="surface1">
<path style=" stroke:none;fill-rule:nonzero;fill:rgb(0%,0%,0%);fill-opacity:1;" d="M 7.96875 5.289062 L 6.015625 7.132812 L 5.078125 6.171875 C 4.972656 6.0625 4.800781 6.0625 4.695312 6.164062 C 4.589844 6.269531 4.585938 6.441406 4.691406 6.546875 L 5.8125 7.699219 C 5.917969 7.804688 6.085938 7.808594 6.195312 7.707031 L 8.34375 5.683594 C 8.394531 5.632812 8.425781 5.566406 8.429688 5.496094 C 8.429688 5.421875 8.402344 5.351562 8.355469 5.300781 C 8.25 5.191406 8.078125 5.1875 7.96875 5.289062 Z M 7.96875 5.289062 "/>
<path style=" stroke:none;fill-rule:nonzero;fill:rgb(0%,0%,0%);fill-opacity:1;" d="M 6.519531 2.453125 C 4.285156 2.453125 2.472656 4.265625 2.472656 6.496094 C 2.472656 8.730469 4.285156 10.542969 6.519531 10.542969 C 8.75 10.542969 10.5625 8.730469 10.5625 6.496094 C 10.5625 4.265625 8.75 2.453125 6.519531 2.453125 Z M 6.519531 10.003906 C 4.585938 10.003906 3.015625 8.429688 3.015625 6.496094 C 3.015625 4.566406 4.585938 2.992188 6.519531 2.992188 C 8.453125 2.992188 10.023438 4.5625 10.023438 6.496094 C 10.023438 8.433594 8.453125 10.003906 6.519531 10.003906 Z M 6.519531 10.003906 "/>
<path style=" stroke:none;fill-rule:nonzero;fill:rgb(0%,0%,0%);fill-opacity:1;" d="M 12.085938 5.007812 L 12.175781 3.402344 C 12.183594 3.292969 12.125 3.195312 12.027344 3.144531 L 10.597656 2.421875 L 9.875 0.992188 C 9.824219 0.898438 9.722656 0.839844 9.617188 0.84375 L 8.007812 0.929688 L 6.667969 0.0429688 C 6.578125 -0.015625 6.460938 -0.015625 6.371094 0.0429688 L 5.027344 0.929688 L 3.421875 0.839844 C 3.316406 0.835938 3.214844 0.894531 3.164062 0.988281 L 2.441406 2.417969 L 1.011719 3.144531 C 0.917969 3.191406 0.859375 3.292969 0.863281 3.398438 L 0.953125 5.007812 L 0.0664062 6.347656 C 0.0078125 6.4375 0.0078125 6.554688 0.0664062 6.644531 L 0.949219 7.988281 L 0.859375 9.59375 C 0.855469 9.699219 0.914062 9.800781 1.011719 9.851562 L 2.441406 10.574219 L 3.164062 12.003906 C 3.210938 12.097656 3.3125 12.15625 3.421875 12.152344 L 5.027344 12.0625 L 6.367188 12.949219 C 6.457031 13.011719 6.574219 13.011719 6.664062 12.949219 L 8.003906 12.0625 L 9.609375 12.152344 C 9.71875 12.160156 9.820312 12.101562 9.867188 12.003906 L 10.589844 10.574219 L 12.019531 9.851562 C 12.117188 9.800781 12.175781 9.699219 12.171875 9.59375 L 12.082031 7.988281 L 12.964844 6.648438 C 13.027344 6.554688 13.027344 6.4375 12.964844 6.347656 Z M 11.582031 7.765625 C 11.550781 7.8125 11.535156 7.871094 11.539062 7.929688 L 11.621094 9.449219 L 10.273438 10.132812 C 10.21875 10.15625 10.179688 10.199219 10.152344 10.25 L 9.46875 11.601562 L 7.949219 11.519531 C 7.894531 11.515625 7.835938 11.53125 7.785156 11.5625 L 6.519531 12.398438 L 5.25 11.5625 C 5.207031 11.53125 5.15625 11.515625 5.101562 11.515625 L 5.089844 11.515625 L 3.570312 11.601562 L 2.886719 10.25 C 2.859375 10.195312 2.820312 10.15625 2.769531 10.128906 L 1.414062 9.449219 L 1.496094 7.929688 C 1.5 7.871094 1.484375 7.816406 1.453125 7.765625 L 0.617188 6.496094 L 1.453125 5.230469 C 1.488281 5.183594 1.503906 5.125 1.496094 5.066406 L 1.414062 3.546875 L 2.765625 2.863281 C 2.816406 2.839844 2.859375 2.796875 2.882812 2.746094 L 3.566406 1.394531 L 5.085938 1.476562 C 5.144531 1.480469 5.203125 1.464844 5.25 1.433594 L 6.519531 0.597656 L 7.785156 1.433594 C 7.835938 1.46875 7.890625 1.480469 7.949219 1.476562 L 9.46875 1.394531 L 10.152344 2.746094 C 10.179688 2.796875 10.21875 2.839844 10.273438 2.863281 L 11.621094 3.546875 L 11.539062 5.066406 C 11.535156 5.125 11.550781 5.179688 11.582031 5.230469 L 12.417969 6.496094 Z M 11.582031 7.765625 "/>
</g>
</svg>
