<?xml version="1.0" encoding="UTF-8"?>
<svg xmlns="http://www.w3.org/2000/svg" xmlns:xlink="http://www.w3.org/1999/xlink" width="16pt" height="16pt" viewBox="0 0 16 16" version="1.1">
<g id="surface1">
<path style=" stroke:none;fill-rule:nonzero;fill:rgb(0%,0%,0%);fill-opacity:1;" d="M 14.125 3.75 L 12.21875 3.75 C 11.972656 1.640625 10.175781 0 8 0 C 5.824219 0 4.027344 1.640625 3.78125 3.75 L 1.875 3.75 C 1.53125 3.75 1.25 4.03125 1.25 4.375 L 1.25 15.375 C 1.25 15.71875 1.53125 16 1.875 16 L 14.125 16 C 14.46875 16 14.75 15.71875 14.75 15.375 L 14.75 4.375 C 14.75 4.03125 14.46875 3.75 14.125 3.75 Z M 8 1.25 C 9.484375 1.25 10.71875 2.332031 10.957031 3.75 L 5.042969 3.75 C 5.28125 2.332031 6.515625 1.25 8 1.25 Z M 13.5 14.75 L 2.5 14.75 L 2.5 5 L 3.75 5 L 3.75 6.875 C 3.75 7.21875 4.03125 7.5 4.375 7.5 C 4.71875 7.5 5 7.21875 5 6.875 L 5 5 L 11 5 L 11 6.875 C 11 7.21875 11.28125 7.5 11.625 7.5 C 11.96875 7.5 12.25 7.21875 12.25 6.875 L 12.25 5 L 13.5 5 Z M 13.5 14.75 "/>
</g>
</svg>
