<?xml version="1.0" encoding="UTF-8"?>
<svg xmlns="http://www.w3.org/2000/svg" xmlns:xlink="http://www.w3.org/1999/xlink" width="13pt" height="13pt" viewBox="0 0 13 13" version="1.1">
<g id="surface1">
<path style=" stroke:none;fill-rule:nonzero;fill:rgb(0%,0%,0%);fill-opacity:1;" d="M 2.910156 12.730469 C 2.765625 12.730469 2.625 12.6875 2.503906 12.601562 C 2.28125 12.4375 2.175781 12.15625 2.234375 11.886719 L 3.070312 8.203125 L 0.238281 5.71875 C 0.0273438 5.535156 -0.0507812 5.25 0.0351562 4.984375 C 0.121094 4.722656 0.351562 4.535156 0.628906 4.511719 L 4.378906 4.167969 L 5.863281 0.699219 C 5.972656 0.445312 6.222656 0.277344 6.496094 0.277344 C 6.773438 0.277344 7.023438 0.445312 7.132812 0.699219 L 8.617188 4.167969 L 12.367188 4.511719 C 12.644531 4.535156 12.875 4.722656 12.960938 4.984375 C 13.046875 5.246094 12.96875 5.535156 12.757812 5.71875 L 9.921875 8.203125 L 10.761719 11.886719 C 10.820312 12.15625 10.714844 12.4375 10.492188 12.601562 C 10.265625 12.761719 9.96875 12.773438 9.730469 12.632812 L 6.496094 10.699219 L 3.261719 12.632812 C 3.152344 12.699219 3.03125 12.730469 2.910156 12.730469 Z M 6.496094 9.867188 C 6.621094 9.867188 6.742188 9.898438 6.851562 9.964844 L 9.90625 11.792969 L 9.117188 8.316406 C 9.058594 8.066406 9.144531 7.808594 9.335938 7.640625 L 12.011719 5.292969 L 8.46875 4.972656 C 8.214844 4.949219 7.996094 4.789062 7.894531 4.554688 L 6.496094 1.277344 L 5.097656 4.554688 C 5 4.789062 4.78125 4.949219 4.527344 4.972656 L 0.984375 5.292969 L 3.660156 7.640625 C 3.851562 7.808594 3.9375 8.066406 3.878906 8.316406 L 3.089844 11.789062 L 6.144531 9.964844 C 6.253906 9.898438 6.375 9.867188 6.496094 9.867188 Z M 4.351562 4.238281 Z M 8.644531 4.234375 Z M 8.644531 4.234375 "/>
</g>
</svg>
