<?xml version="1.0" encoding="UTF-8"?>
<svg xmlns="http://www.w3.org/2000/svg" xmlns:xlink="http://www.w3.org/1999/xlink" width="10pt" height="10pt" viewBox="0 0 10 10" version="1.1">
<g id="surface1">
<path style=" stroke:none;fill-rule:nonzero;fill:rgb(0%,0%,0%);fill-opacity:1;" d="M 9.9375 4.804688 C 9.847656 4.683594 7.71875 1.8125 5 1.8125 C 2.28125 1.8125 0.152344 4.683594 0.0625 4.804688 C -0.0195312 4.921875 -0.0195312 5.078125 0.0625 5.195312 C 0.152344 5.316406 2.28125 8.1875 5 8.1875 C 7.71875 8.1875 9.847656 5.316406 9.9375 5.195312 C 10.019531 5.078125 10.019531 4.921875 9.9375 4.804688 Z M 5 7.527344 C 2.996094 7.527344 1.261719 5.621094 0.75 5 C 1.261719 4.375 2.992188 2.472656 5 2.472656 C 7.003906 2.472656 8.738281 4.378906 9.25 5 C 8.738281 5.625 7.007812 7.527344 5 7.527344 Z M 5 7.527344 "/>
<path style=" stroke:none;fill-rule:nonzero;fill:rgb(0%,0%,0%);fill-opacity:1;" d="M 5 3.023438 C 3.910156 3.023438 3.023438 3.910156 3.023438 5 C 3.023438 6.089844 3.910156 6.976562 5 6.976562 C 6.089844 6.976562 6.976562 6.089844 6.976562 5 C 6.976562 3.910156 6.089844 3.023438 5 3.023438 Z M 5 6.320312 C 4.273438 6.320312 3.679688 5.726562 3.679688 5 C 3.679688 4.273438 4.273438 3.679688 5 3.679688 C 5.726562 3.679688 6.320312 4.273438 6.320312 5 C 6.320312 5.726562 5.726562 6.320312 5 6.320312 Z M 5 6.320312 "/>
</g>
</svg>
